<?xml version="1.0" encoding="UTF-8" standalone="no"?>
<!-- Created with Inkscape (http://www.inkscape.org/) -->

<svg
   version="1.1"
   id="svg1"
   width="249.99998"
   height="258.16321"
   viewBox="0 0 249.99998 258.16321"
   sodipodi:docname="festivente-noname-svg.svg"
   inkscape:version="1.3.2 (091e20e, 2023-11-25, custom)"
   xmlns:inkscape="http://www.inkscape.org/namespaces/inkscape"
   xmlns:sodipodi="http://sodipodi.sourceforge.net/DTD/sodipodi-0.dtd"
   xmlns:xlink="http://www.w3.org/1999/xlink"
   xmlns="http://www.w3.org/2000/svg"
   xmlns:svg="http://www.w3.org/2000/svg">
  <defs
     id="defs1">
    <linearGradient
       id="linearGradient71"
       inkscape:collect="always">
      <stop
         style="stop-color:#110a1f;stop-opacity:1;"
         offset="0"
         id="stop72" />
      <stop
         style="stop-color:#1a0d21;stop-opacity:1;"
         offset="0.5"
         id="stop74" />
      <stop
         style="stop-color:#4f1734;stop-opacity:1;"
         offset="0.75"
         id="stop75" />
      <stop
         style="stop-color:#a72f3b;stop-opacity:1;"
         offset="0.875"
         id="stop76" />
      <stop
         style="stop-color:#f27521;stop-opacity:1;"
         offset="1"
         id="stop73" />
    </linearGradient>
    <linearGradient
       id="linearGradient66"
       inkscape:collect="always">
      <stop
         style="stop-color:#191120;stop-opacity:1;"
         offset="0"
         id="stop67" />
      <stop
         style="stop-color:#1f0720;stop-opacity:1;"
         offset="0.11367837"
         id="stop69" />
      <stop
         style="stop-color:#631937;stop-opacity:1;"
         offset="0.2823475"
         id="stop70" />
      <stop
         style="stop-color:#c9403a;stop-opacity:1;"
         offset="0.4905268"
         id="stop71" />
      <stop
         style="stop-color:#fe8b30;stop-opacity:1;"
         offset="1"
         id="stop68" />
    </linearGradient>
    <linearGradient
       id="linearGradient63"
       inkscape:collect="always">
      <stop
         style="stop-color:#1f0720;stop-opacity:1;"
         offset="0"
         id="stop63" />
      <stop
         style="stop-color:#541726;stop-opacity:1;"
         offset="0.15064695"
         id="stop65" />
      <stop
         style="stop-color:#e05c2b;stop-opacity:1;"
         offset="0.40619224"
         id="stop66" />
      <stop
         style="stop-color:#fa9524;stop-opacity:1;"
         offset="1"
         id="stop64" />
    </linearGradient>
    <linearGradient
       id="linearGradient49"
       inkscape:collect="always">
      <stop
         style="stop-color:#1da9ca;stop-opacity:1;"
         offset="0.23844732"
         id="stop50" />
      <stop
         style="stop-color:#152735;stop-opacity:1;"
         offset="1"
         id="stop49" />
    </linearGradient>
    <linearGradient
       id="linearGradient28"
       inkscape:collect="always">
      <stop
         style="stop-color:#582027;stop-opacity:1;"
         offset="0"
         id="stop29" />
      <stop
         style="stop-color:#a83930;stop-opacity:1;"
         offset="0.20583336"
         id="stop30" />
      <stop
         style="stop-color:#e66630;stop-opacity:1;"
         offset="0.33555096"
         id="stop31" />
      <stop
         style="stop-color:#ff9128;stop-opacity:1;"
         offset="0.60860515"
         id="stop32" />
      <stop
         style="stop-color:#fdb349;stop-opacity:0.98039216;"
         offset="1"
         id="stop28" />
    </linearGradient>
    <linearGradient
       id="linearGradient26"
       inkscape:collect="always">
      <stop
         style="stop-color:#228da7;stop-opacity:1;"
         offset="0"
         id="stop26" />
      <stop
         style="stop-color:#122335;stop-opacity:1;"
         offset="1"
         id="stop27" />
    </linearGradient>
    <linearGradient
       inkscape:collect="always"
       xlink:href="#linearGradient26"
       id="linearGradient27"
       x1="53.158905"
       y1="199.61273"
       x2="157.68388"
       y2="199.61273"
       gradientUnits="userSpaceOnUse" />
    <linearGradient
       inkscape:collect="always"
       xlink:href="#linearGradient28"
       id="linearGradient29"
       x1="130.11411"
       y1="234.68434"
       x2="104.57023"
       y2="90.600922"
       gradientUnits="userSpaceOnUse"
       spreadMethod="pad" />
    <linearGradient
       inkscape:collect="always"
       xlink:href="#linearGradient49"
       id="linearGradient50"
       x1="157.41708"
       y1="58.429436"
       x2="157.79485"
       y2="247.61375"
       gradientUnits="userSpaceOnUse" />
    <linearGradient
       inkscape:collect="always"
       xlink:href="#linearGradient63"
       id="linearGradient64"
       x1="225.69736"
       y1="143.92972"
       x2="273.78"
       y2="0.2454292"
       gradientUnits="userSpaceOnUse"
       gradientTransform="translate(-29.984114,87.358052)" />
    <linearGradient
       inkscape:collect="always"
       xlink:href="#linearGradient66"
       id="linearGradient68"
       x1="160.20018"
       y1="256.41547"
       x2="167.56241"
       y2="24.525007"
       gradientUnits="userSpaceOnUse" />
    <linearGradient
       inkscape:collect="always"
       xlink:href="#linearGradient71"
       id="linearGradient73"
       x1="74.052734"
       y1="187.06348"
       x2="289.85349"
       y2="187.06348"
       gradientUnits="userSpaceOnUse"
       gradientTransform="translate(4,-2)" />
  </defs>
  <sodipodi:namedview
     id="namedview1"
     pagecolor="#ffffff"
     bordercolor="#000000"
     borderopacity="0.25"
     inkscape:showpageshadow="2"
     inkscape:pageopacity="0.0"
     inkscape:pagecheckerboard="false"
     inkscape:deskcolor="#d1d1d1"
     showgrid="false"
     inkscape:zoom="2.0000001"
     inkscape:cx="146.74999"
     inkscape:cy="139.74999"
     inkscape:window-width="1920"
     inkscape:window-height="1017"
     inkscape:window-x="-8"
     inkscape:window-y="-8"
     inkscape:window-maximized="1"
     inkscape:current-layer="g1"
     showborder="true"
     showguides="true"
     labelstyle="default"
     inkscape:clip-to-page="false">
    <inkscape:grid
       id="grid5"
       units="px"
       originx="2.6212808e-06"
       originy="1.6222042e-06"
       spacingx="1"
       spacingy="1"
       empcolor="#0099e5"
       empopacity="0.30196078"
       color="#0099e5"
       opacity="0.14901961"
       empspacing="5"
       dotted="false"
       gridanglex="30"
       gridanglez="30"
       visible="false" />
  </sodipodi:namedview>
  <g
     inkscape:groupmode="layer"
     inkscape:label="Image"
     id="g1"
     transform="matrix(1.0386576,0,0,1.0386576,-55.213901,-22.987788)">
    <path
       d="m 165.1543,22.144531 c -0.0205,0.03763 -0.6497,0.04929 -0.35019,0.312673 1.75633,1.544462 1.04916,0.932429 2.4498,2.212718 3.7017,3.38363 7.30311,6.10187 12.64453,13.30664 0.93607,1.262631 2.72663,3.637931 3.97851,5.279297 2.81682,3.693172 5.26893,8.08053 7.64649,13.677735 6.3381,14.921065 8.75398,29.745903 7.50781,46.082036 -1.69913,22.27397 -11.23507,46.69796 -25.66211,65.73046 -7.23951,9.55054 -13.53736,20.35243 -16.35742,28.05469 -3.25283,8.88425 -4.57032,20.81134 -3.76563,34.08008 0.80847,13.33106 1.96285,19.15655 5.45703,27.51953 0.66182,1.584 1.29246,3.13145 1.4004,3.43945 0.10794,0.308 0.4072,0.56055 0.66406,0.56055 0.33011,0 0.53061,-0.53921 0.68359,-1.83984 0.25808,-2.19421 1.46763,-5.90716 2.78906,-8.56055 1.24315,-2.49616 5.86392,-7.09543 9.51954,-9.47461 4.94265,-3.21683 9.61647,-5.03453 26.24023,-10.20312 13.82137,-4.29728 23.99399,-8.26815 29.91992,-11.67969 2.72314,-1.5677 9.15274,-5.91575 11.83985,-8.00586 3.90253,-3.0355 10.61808,-10.13482 13.07031,-13.81836 3.72521,-5.59572 7.55258,-13.99286 9.14062,-20.05859 1.50058,-5.73171 1.79079,-9.00905 1.77539,-20.03907 -0.0158,-11.32711 -0.057,-11.71846 -2.4414,-23.04101 -1.7606,-8.36038 -5.07954,-17.55877 -10.73438,-29.75977 -3.46111,-7.467782 -6.09514,-12.281085 -8.23047,-15.039061 -0.74947,-0.967999 -1.72953,-2.337016 -2.17773,-3.041015 -1.04147,-1.635878 -4.14449,-4.99747 -3.86524,-4.1875 0.15049,0.436506 0.0987,0.542387 -0.18164,0.36914 -0.21634,-0.133702 0.19727,0.92988 0.91797,2.363282 5.9827,11.898977 8.42134,20.733564 9.76172,35.363284 0.5805,6.33588 0.65276,15.61584 0.1582,20.17187 -0.97806,9.01034 -2.87188,17.91566 -5.1289,24.11524 -0.87389,2.40038 -2.03642,5.58798 -2.58203,7.08398 -1.06725,2.92626 -5.99554,12.43042 -8.87891,17.12109 -4.33949,7.05951 -10.3337,14.64596 -15.32812,19.39649 -4.89988,4.6606 -5.21766,4.90264 -16.8086,12.90234 -1.5469,1.06763 -3.13043,2.15249 -3.51953,2.41016 -0.3891,0.25767 0.37336,-0.53076 1.69336,-1.75195 1.32,-1.22119 3.62314,-3.38327 5.11914,-4.80469 1.496,-1.42142 4.14757,-3.87417 5.89258,-5.44922 7.84912,-7.08462 16.02024,-17.62284 19.45703,-25.09375 3.51782,-7.64705 5.18012,-14.50438 6.51563,-26.88867 0.43667,-4.04964 0.50112,-6.92922 0.35546,-15.68164 -0.2692,-16.17499 -1.62751,-24.58461 -6.13476,-37.96289 -2.33744,-6.93791 -8.36858,-21.838599 -9.4375,-23.31641 -0.12731,-0.176 -1.20744,-2.192471 -2.40039,-4.480469 -4.95195,-9.497519 -16.17169,-25.439694 -22.03516,-31.310547 -1.08503,-1.0864 -4.22355,-4.355063 -6.97461,-7.265625 -3.35027,-3.544525 -6.40419,-6.397988 -9.25,-8.638672 -2.33682,-1.839922 -5.05494,-4.049607 -6.03906,-4.910156 -2.12806,-1.860845 -6.58225,-4.825229 -7.70898,-5.130859 -0.38975,-0.10572 -0.58496,-0.156769 -0.60547,-0.119141 z"
       style="display:inline;fill:url(#linearGradient68);stroke-width:1.00157"
       id="path12"
       sodipodi:nodetypes="ssssssssssssssssssssssssssssssssssssssssssssssssssss" />
    <path
       id="path13"
       style="display:inline;fill:url(#linearGradient73);stroke-width:1.00157"
       d="m 279.6257,99.43885 c -0.62132,0 -0.53164,0.44867 0.50782,2.50781 1.28629,2.54799 3.31494,8.75785 4.30273,13.17188 2.60434,11.63863 3.22078,23.05324 1.82031,33.72265 -1.02431,7.80359 -3.39348,17.52316 -5.66406,23.23829 -5.60393,14.10397 -15.09804,27.94343 -26.19141,38.17578 -5.16897,4.76777 -8.65686,7.49576 -14.40039,11.26757 -3.93295,2.58259 -11.31104,6.87696 -11.8164,6.87696 -0.0994,0 -1.58579,0.641 -3.30274,1.42578 -7.26918,3.32264 -16.47499,6.35365 -28.14062,9.26367 -8.55267,2.13362 -11.03094,2.87183 -13.69141,4.08203 -10.05664,4.57452 -17.99031,13.84226 -17.68945,20.66016 0.0449,1.01654 -0.0412,2.97446 -0.18946,4.35156 l -0.26953,2.50391 0.88086,-0.10352 c 0.70239,-0.0831 1.08199,-0.48047 1.88867,-1.97656 1.43082,-2.65363 2.14691,-3.14012 4.33008,-2.93555 0.968,0.0907 5.5764,0.54926 10.24024,1.01953 11.7234,1.18211 22.97419,1.25017 28.61718,0.17188 16.47938,-3.14889 28.21661,-8.00574 39.0625,-16.16602 8.66227,-6.51749 14.34118,-12.11027 20.25586,-19.94922 13.49174,-17.88098 22.02381,-42.29722 23.49219,-67.22851 0.59508,-10.10381 -0.27062,-23.03091 -2.17773,-32.5586 -2.71117,-13.54557 -9.47682,-31.52148 -11.86524,-31.52148 z" />
    <path
       d="m 173.75977,44.730469 c 0,-0.377426 -3.66545,1.672017 -7.15625,4.001953 -10.50985,7.014769 -26.5593,22.635687 -34.99024,34.05664 -2.38908,3.236358 -8.01472,11.949718 -10.47656,16.226563 -9.6517,16.767485 -15.12775,34.638075 -16.52539,53.933595 -1.20877,16.68815 1.51132,31.9499 8.52734,47.85156 2.81621,6.38285 6.67275,12.92236 9.10156,15.43555 0.44,0.45528 0.58617,0.70462 0.32618,0.55273 -0.44498,-0.25997 2.14994,3.03172 4.92187,6.24414 2.10239,2.43648 10.49122,11.08984 13.55664,14.33789 1.80236,1.90974 2.01624,2.17553 2.98633,3.36133 0.43678,0.5339 1.0114,1.27236 1.87695,2.23242 0.84529,0.93758 2.74804,2.70003 4.33203,4.28125 1.584,1.58123 3.00553,2.90297 3.15821,2.93555 0.15308,0.0327 0.17608,-1.05431 0.0527,-2.42187 -0.12303,-1.364 -0.50543,-3.76258 -0.84961,-5.33008 -2.4992,-11.38203 -3.48555,-21.79436 -2.86914,-30.26953 1.14715,-15.77273 6.1797,-28.69116 16.59766,-42.60547 1.27066,-1.69711 2.31054,-3.26125 2.31054,-3.47461 0,-0.21337 -0.40614,-0.98336 -0.90234,-1.71289 -0.4962,-0.72952 -2.42398,-3.55911 -4.2832,-6.28711 -4.8149,-7.06478 -6.74655,-10.35975 -9.37696,-16 -5.99394,-12.85253 -8.48712,-23.8804 -8.50195,-37.59961 -0.006,-5.100183 0.12703,-6.867021 0.82422,-10.962892 1.65447,-9.719794 5.16078,-19.523303 9.75391,-27.277344 3.97129,-6.704294 6.81943,-10.380474 12.38086,-15.974609 2.87321,-2.89011 5.22461,-5.380655 5.22461,-5.535156 z"
       style="display:inline;opacity:1;fill:url(#linearGradient50);stroke-width:1.00157"
       id="path11"
       sodipodi:nodetypes="ccsssssssssssssssssssscssscc" />
    <path
       d="m 107.31641,87.648437 c -0.23643,0.07917 -1.04159,0.770103 -2.22657,2.007813 -5.615973,5.86587 -10.861875,12.57889 -13.757809,17.60547 -10.477292,18.18579 -15.599058,33.1999 -17.117187,50.17773 -1.592507,17.80962 4.303905,36.07259 15.675781,48.55078 6.809161,7.4716 13.665375,12.99161 24.830075,19.99219 3.65387,2.29109 5.01685,3.04402 14.68555,8.0957 3.21593,1.68025 6.79604,3.23065 8.44531,3.65821 0.0505,0.0131 -0.45261,-0.53008 -1.11914,-1.20703 -0.66654,-0.67695 -2.02614,-1.7604 -3.01953,-2.40821 -3.74734,-2.44372 -11.33378,-10.28059 -17.38867,-17.96093 -1.38752,-1.76 -3.00057,-3.79959 -3.58399,-4.53321 -0.58341,-0.73362 -1.06054,-1.40205 -1.06054,-1.48437 0,-0.0823 -0.55869,-0.99333 -1.24219,-2.02539 -3.84674,-5.80843 -12.423807,-23.51883 -15.166016,-31.31641 -4.62896,-13.16266 -6.124147,-21.87588 -6.125,-35.68164 -4.34e-4,-7.02835 0.284661,-9.85426 1.773438,-17.53516 2.490615,-12.84957 8.930381,-27.364972 15.203128,-34.273433 1.09709,-1.208281 1.42978,-1.741277 1.19336,-1.66211 z"
       style="display:inline;fill:url(#linearGradient29);fill-opacity:1;fill-rule:nonzero;stroke:none;stroke-width:0;stroke-dasharray:none;stroke-opacity:1"
       id="path10"
       inkscape:label="path10" />
    <path
       d="m 58.279297,129.64258 c -0.144211,0.12687 -0.343387,0.83764 -0.960938,3.1582 -1.026529,3.8574 -2.857474,13.26692 -3.423828,17.59961 -0.693995,5.30917 -0.984584,21.61212 -0.484375,27.12695 1.278951,14.10048 5.643261,29.07818 11.63086,39.91211 9.04401,16.36417 21.20875,28.27179 38.505864,37.69141 6.46575,3.52111 9.66559,4.92597 15.45117,6.78125 10.14809,3.25423 17.44803,4.31181 29.81054,4.32226 6.24155,0.005 6.28828,0.0187 7.81836,2.22657 1.00342,1.44794 1.32614,1.5284 0.82227,0.20312 -0.18092,-0.47586 -0.33008,-1.40017 -0.33008,-2.05273 0,-1.5742 -1.60714,-5.6779 -3.41016,-8.70899 -1.96871,-3.30963 -4.45622,-6.02642 -7.14062,-7.79492 -2.13832,-1.40872 -9.06311,-4.98828 -9.65039,-4.98828 -0.15492,0 -1.03585,-0.36567 -1.95899,-0.81445 -2.11152,-1.02649 -4.2079,-1.8659 -10.63867,-4.25586 -5.8638,-2.17925 -13.2567,-5.50695 -16.88867,-7.60156 -3.3245,-1.9173 -12.432064,-7.8756 -14.630859,-9.57227 -7.532964,-5.81271 -16.829428,-16.26254 -22.632812,-25.43945 -5.013223,-7.92744 -9.751952,-19.69372 -11.625,-28.8711 -2.23233,-10.93776 -2.462511,-24.80687 -0.585938,-35.24609 0.34425,-1.91503 0.553046,-3.55633 0.462891,-3.64649 -0.0491,-0.0491 -0.09255,-0.0716 -0.140625,-0.0293 z"
       style="display:inline;opacity:1;fill:url(#linearGradient27);fill-opacity:1;stroke-width:1.00157"
       id="path9" />
    <path
       d="m 238.34086,83.533384 c -0.0602,-0.0176 -0.0779,0.01789 -0.043,0.119141 0.15045,0.436501 0.0987,0.542387 -0.18164,0.36914 -0.21634,-0.133697 0.19727,0.929885 0.91797,2.363282 5.9827,11.898915 8.42134,20.733583 9.76172,35.363253 0.5805,6.33583 0.65276,15.61589 0.1582,20.17187 -0.97801,9.01029 -2.87188,17.91566 -5.1289,24.11524 -0.87389,2.40033 -2.03642,5.58798 -2.58203,7.08398 -1.06725,2.92626 -5.99554,12.43047 -8.87891,17.12109 -4.33944,7.05951 -10.33375,14.64596 -15.32812,19.39649 -4.89988,4.66055 -5.21771,4.90269 -16.8086,12.90234 -1.10722,0.76419 -1.8788,1.28899 -2.51953,1.72461 -0.0433,0.0497 -0.0864,0.0994 -0.13281,0.14649 -0.11136,0.11662 -0.24707,0.20252 -0.375,0.29882 -0.0688,0.0503 -0.13878,0.10014 -0.20899,0.14844 -0.0104,0.0239 -0.0178,0.0489 -0.0293,0.0723 -0.0373,0.0735 -0.099,0.12814 -0.15625,0.18554 -0.0375,0.0376 -0.0752,0.0597 -0.10938,0.0684 -0.0301,0.0596 -0.0571,0.12089 -0.0918,0.17774 -0.0692,0.14362 -0.16888,0.26512 -0.26758,0.38867 -0.10084,0.11609 -0.19637,0.23772 -0.29297,0.35742 -0.10499,0.12358 -0.21234,0.24578 -0.32617,0.36133 -0.11163,0.12089 -0.23401,0.23107 -0.35547,0.3418 -0.13108,0.12205 -0.26116,0.24343 -0.39063,0.36718 -0.185,0.15833 -0.34994,0.33775 -0.51758,0.51368 -0.16416,0.17579 -0.30942,0.36529 -0.44921,0.56054 -0.14563,0.18221 -0.26805,0.38138 -0.39258,0.57813 -0.11785,0.17351 -0.22518,0.35362 -0.33008,0.53515 -0.11207,0.19477 -0.22699,0.38829 -0.33398,0.58594 -0.12503,0.22615 -0.24659,0.45435 -0.37305,0.67969 -0.13052,0.24636 -0.26876,0.48942 -0.39063,0.74023 -0.11433,0.22561 -0.22953,0.45021 -0.33593,0.67969 -0.0891,0.18775 -0.17589,0.37608 -0.27539,0.55859 -0.12137,0.20696 -0.25799,0.40506 -0.38672,0.60743 -0.11415,0.16944 -0.22266,0.34312 -0.33789,0.51172 -0.10012,0.15712 -0.21314,0.30483 -0.32813,0.45117 -0.089,0.11701 -0.17897,0.2321 -0.28516,0.33398 -0.0893,0.0874 -0.1885,0.16294 -0.2832,0.24414 -0.0773,0.0777 -0.17556,0.13032 -0.25976,0.19922 -0.081,0.0691 -0.17713,0.11378 -0.26563,0.17188 -0.0868,0.0752 -0.18179,0.14073 -0.27539,0.20703 -0.093,0.0623 -0.18529,0.12295 -0.27539,0.18945 -0.10665,0.0751 -0.21617,0.14865 -0.32617,0.21875 -0.0896,0.0603 -0.17627,0.12095 -0.25977,0.18945 -0.0341,0.0284 -0.0699,0.0551 -0.10547,0.082 l -0.002,0.002 c -0.0195,0.0465 -0.0371,0.0946 -0.0527,0.14258 3.17325,-1.07882 6.8624,-2.28063 11.87109,-3.83789 13.82132,-4.29728 23.99404,-8.2682 29.91992,-11.67969 2.72314,-1.5677 9.15274,-5.91575 11.83985,-8.00586 3.90248,-3.0355 10.61808,-10.13482 13.07031,-13.81836 3.72516,-5.59572 7.61508,-13.99291 9.20312,-20.05859 1.50058,-5.73171 2.26927,-14.32223 2.15039,-20.03907 -0.15104,-7.26341 -0.36192,-11.67432 -2.74632,-22.99682 -1.7606,-8.36033 -5.21212,-17.60301 -10.86696,-29.80396 -3.46106,-7.467708 -6.09514,-12.281064 -8.23047,-15.03903 -0.74947,-0.967994 -1.72953,-2.337021 -2.17773,-3.041015 -0.91129,-1.431388 -3.40117,-4.183461 -3.82227,-4.306641 z"
       style="display:inline;fill:url(#linearGradient64);stroke-width:1.00157"
       id="path62"
       sodipodi:nodetypes="csssscssccscccccscccccccccccccccccccccccccccccccssssssssscc" />
  </g>
</svg>
